<svg xmlns="http://www.w3.org/2000/svg" viewBox="0 0 1200 240" preserveAspectRatio="xMidYMid slice">
  <defs>
    <linearGradient id="bg" x1="0" y1="0" x2="1" y2="0">
      <stop offset="0" stop-color="#f3f6fc"/>
      <stop offset="1" stop-color="#dbe6f7"/>
    </linearGradient>
    <pattern id="dots" width="14" height="14" patternUnits="userSpaceOnUse">
      <circle cx="1" cy="1" r="1" fill="#1e4ea3" fill-opacity="0.08"/>
    </pattern>
  </defs>
  <rect width="1200" height="240" fill="url(#bg)"/>
  <rect width="1200" height="240" fill="url(#dots)"/>

  <!-- repeating attention-matrix tiles across the right half -->
  <g fill="#1e4ea3">
    <!-- tile 1 -->
    <g transform="translate(620, 36)" fill-opacity="0.08">
      <rect x="0"   y="0"   width="18" height="18"/>
      <rect x="0"   y="22"  width="18" height="18"/><rect x="22"  y="22"  width="18" height="18"/>
      <rect x="0"   y="44"  width="18" height="18"/><rect x="22"  y="44"  width="18" height="18"/><rect x="44" y="44" width="18" height="18"/>
      <rect x="0"   y="66"  width="18" height="18"/><rect x="22"  y="66"  width="18" height="18"/><rect x="44" y="66" width="18" height="18"/><rect x="66" y="66" width="18" height="18"/>
      <rect x="0"   y="88"  width="18" height="18"/><rect x="22"  y="88"  width="18" height="18"/><rect x="44" y="88" width="18" height="18"/><rect x="66" y="88" width="18" height="18"/><rect x="88" y="88" width="18" height="18"/>
      <rect x="0"   y="110" width="18" height="18"/><rect x="22"  y="110" width="18" height="18"/><rect x="44" y="110" width="18" height="18"/><rect x="66" y="110" width="18" height="18"/><rect x="88" y="110" width="18" height="18"/><rect x="110" y="110" width="18" height="18"/>
      <rect x="0"   y="132" width="18" height="18"/><rect x="22"  y="132" width="18" height="18"/><rect x="44" y="132" width="18" height="18"/><rect x="66" y="132" width="18" height="18"/><rect x="88" y="132" width="18" height="18"/><rect x="110" y="132" width="18" height="18"/><rect x="132" y="132" width="18" height="18"/>
      <rect x="0"   y="154" width="18" height="18"/><rect x="22"  y="154" width="18" height="18"/><rect x="44" y="154" width="18" height="18"/><rect x="66" y="154" width="18" height="18"/><rect x="88" y="154" width="18" height="18"/><rect x="110" y="154" width="18" height="18"/><rect x="132" y="154" width="18" height="18"/><rect x="154" y="154" width="18" height="18"/>
    </g>
    <g transform="translate(620, 36)" fill-opacity="0.85">
      <rect x="0"   y="22"  width="18" height="18"/>
      <rect x="22"  y="44"  width="18" height="18"/>
      <rect x="44"  y="66"  width="18" height="18"/>
      <rect x="66"  y="88"  width="18" height="18"/>
      <rect x="88"  y="110" width="18" height="18"/>
      <rect x="110" y="132" width="18" height="18"/>
      <rect x="132" y="154" width="18" height="18"/>
    </g>

    <!-- tile 2 (offset, lighter) -->
    <g transform="translate(880, 60)" fill-opacity="0.05">
      <rect x="0"   y="0"   width="14" height="14"/>
      <rect x="0"   y="18"  width="14" height="14"/><rect x="18"  y="18"  width="14" height="14"/>
      <rect x="0"   y="36"  width="14" height="14"/><rect x="18"  y="36"  width="14" height="14"/><rect x="36" y="36" width="14" height="14"/>
      <rect x="0"   y="54"  width="14" height="14"/><rect x="18"  y="54"  width="14" height="14"/><rect x="36" y="54" width="14" height="14"/><rect x="54" y="54" width="14" height="14"/>
      <rect x="0"   y="72"  width="14" height="14"/><rect x="18"  y="72"  width="14" height="14"/><rect x="36" y="72" width="14" height="14"/><rect x="54" y="72" width="14" height="14"/><rect x="72" y="72" width="14" height="14"/>
      <rect x="0"   y="90"  width="14" height="14"/><rect x="18"  y="90"  width="14" height="14"/><rect x="36" y="90" width="14" height="14"/><rect x="54" y="90" width="14" height="14"/><rect x="72" y="90" width="14" height="14"/><rect x="90" y="90" width="14" height="14"/>
    </g>
    <g transform="translate(880, 60)" fill-opacity="0.4">
      <rect x="0"   y="18"  width="14" height="14"/>
      <rect x="18"  y="36"  width="14" height="14"/>
      <rect x="36"  y="54"  width="14" height="14"/>
      <rect x="54"  y="72"  width="14" height="14"/>
      <rect x="72"  y="90"  width="14" height="14"/>
    </g>

    <!-- tile 3 -->
    <g transform="translate(1050, 100)" fill-opacity="0.04">
      <rect x="0"   y="0"   width="10" height="10"/>
      <rect x="0"   y="14"  width="10" height="10"/><rect x="14"  y="14"  width="10" height="10"/>
      <rect x="0"   y="28"  width="10" height="10"/><rect x="14"  y="28"  width="10" height="10"/><rect x="28" y="28" width="10" height="10"/>
      <rect x="0"   y="42"  width="10" height="10"/><rect x="14"  y="42"  width="10" height="10"/><rect x="28" y="42" width="10" height="10"/><rect x="42" y="42" width="10" height="10"/>
      <rect x="0"   y="56"  width="10" height="10"/><rect x="14"  y="56"  width="10" height="10"/><rect x="28" y="56" width="10" height="10"/><rect x="42" y="56" width="10" height="10"/><rect x="56" y="56" width="10" height="10"/>
    </g>
    <g transform="translate(1050, 100)" fill-opacity="0.25">
      <rect x="0"   y="14"  width="10" height="10"/>
      <rect x="14"  y="28"  width="10" height="10"/>
      <rect x="28"  y="42"  width="10" height="10"/>
      <rect x="42"  y="56"  width="10" height="10"/>
    </g>
  </g>
</svg>
